<?xml version="1.0" encoding="UTF-8"?>
<!DOCTYPE svg
PUBLIC "-//W3C//DTD SVG 1.1//EN"
       "http://www.w3.org/Graphics/SVG/1.1/DTD/svg11.dtd">
<svg viewBox="22 -7 1284 732" width="1262px" height="739px" xmlns="http://www.w3.org/2000/svg" version="1.1">
   <line x1="174" y1="88" x2="184" y2="88" style="stroke:#cb0;stroke-width:1;"/>
   <line x1="288" y1="292" x2="298" y2="292" style="stroke:#cb0;stroke-width:1;"/>
   <line x1="184" y1="88" x2="288" y2="292" style="stroke:#cb0;stroke-width:1;"/>
   <line x1="181.5" y1="88" x2="177.96446609407" y2="91.535533905933" style="stroke:#cb0;stroke-width:2;"/>
   <line x1="181.5" y1="88" x2="177.96446609407" y2="84.464466094067" style="stroke:#cb0;stroke-width:2;"/>
   <line x1="293" y1="292" x2="289.46446609407" y2="295.53553390593" style="stroke:#cb0;stroke-width:2;"/>
   <line x1="293" y1="292" x2="289.46446609407" y2="288.46446609407" style="stroke:#cb0;stroke-width:2;"/>
   <line x1="174" y1="128" x2="184" y2="128" style="stroke:#333;stroke-width:1;"/>
   <line x1="317" y1="95" x2="327" y2="95" style="stroke:#333;stroke-width:1;"/>
   <line x1="184" y1="128" x2="317" y2="95" style="stroke:#333;stroke-width:1;"/>
   <line x1="181.5" y1="128" x2="177.96446609407" y2="131.53553390593" style="stroke:#333;stroke-width:2;"/>
   <line x1="181.5" y1="128" x2="177.96446609407" y2="124.46446609407" style="stroke:#333;stroke-width:2;"/>
   <line x1="322" y1="95" x2="318.46446609407" y2="98.535533905933" style="stroke:#333;stroke-width:2;"/>
   <line x1="322" y1="95" x2="318.46446609407" y2="91.464466094067" style="stroke:#333;stroke-width:2;"/>
   <line x1="174" y1="108" x2="184" y2="108" style="stroke:#bbb;stroke-width:1;"/>
   <line x1="572" y1="51" x2="582" y2="51" style="stroke:#bbb;stroke-width:1;"/>
   <line x1="184" y1="108" x2="572" y2="51" style="stroke:#bbb;stroke-width:1;"/>
   <line x1="181.5" y1="108" x2="177.96446609407" y2="111.53553390593" style="stroke:#bbb;stroke-width:2;"/>
   <line x1="181.5" y1="108" x2="177.96446609407" y2="104.46446609407" style="stroke:#bbb;stroke-width:2;"/>
   <line x1="577" y1="51" x2="573.46446609407" y2="54.535533905933" style="stroke:#bbb;stroke-width:2;"/>
   <line x1="577" y1="51" x2="573.46446609407" y2="47.464466094067" style="stroke:#bbb;stroke-width:2;"/>
   <line x1="174" y1="148" x2="184" y2="148" style="stroke:#c00;stroke-width:1;"/>
   <line x1="627" y1="271" x2="637" y2="271" style="stroke:#c00;stroke-width:1;"/>
   <line x1="184" y1="148" x2="627" y2="271" style="stroke:#c00;stroke-width:1;"/>
   <line x1="181.5" y1="148" x2="177.96446609407" y2="151.53553390593" style="stroke:#c00;stroke-width:2;"/>
   <line x1="181.5" y1="148" x2="177.96446609407" y2="144.46446609407" style="stroke:#c00;stroke-width:2;"/>
   <line x1="632" y1="271" x2="628.46446609407" y2="274.53553390593" style="stroke:#c00;stroke-width:2;"/>
   <line x1="632" y1="271" x2="628.46446609407" y2="267.46446609407" style="stroke:#c00;stroke-width:2;"/>
   <line x1="41" y1="500" x2="31" y2="500" style="stroke:#333;stroke-width:1;"/>
   <line x1="27" y1="48" x2="37" y2="48" style="stroke:#333;stroke-width:1;"/>
   <line x1="31" y1="500" x2="27" y2="48" style="stroke:#333;stroke-width:1;"/>
   <line x1="33.5" y1="500" x2="37.035533905933" y2="503.53553390593" style="stroke:#333;stroke-width:2;"/>
   <line x1="33.5" y1="500" x2="37.035533905933" y2="496.46446609407" style="stroke:#333;stroke-width:2;"/>
   <line x1="32" y1="48" x2="28.464466094067" y2="51.535533905933" style="stroke:#333;stroke-width:2;"/>
   <line x1="32" y1="48" x2="28.464466094067" y2="44.464466094067" style="stroke:#333;stroke-width:2;"/>
   <line x1="41" y1="520" x2="31" y2="520" style="stroke:#b0b;stroke-width:1;"/>
   <line x1="34" y1="306" x2="44" y2="306" style="stroke:#b0b;stroke-width:1;"/>
   <line x1="31" y1="520" x2="34" y2="306" style="stroke:#b0b;stroke-width:1;"/>
   <line x1="33.5" y1="520" x2="37.035533905933" y2="523.53553390593" style="stroke:#b0b;stroke-width:2;"/>
   <line x1="33.5" y1="520" x2="37.035533905933" y2="516.46446609407" style="stroke:#b0b;stroke-width:2;"/>
   <line x1="39" y1="306" x2="35.464466094067" y2="309.53553390593" style="stroke:#b0b;stroke-width:2;"/>
   <line x1="39" y1="306" x2="35.464466094067" y2="302.46446609407" style="stroke:#b0b;stroke-width:2;"/>
   <line x1="155" y1="346" x2="165" y2="346" style="stroke:#cb0;stroke-width:1;"/>
   <line x1="288" y1="292" x2="298" y2="292" style="stroke:#cb0;stroke-width:1;"/>
   <line x1="165" y1="346" x2="288" y2="292" style="stroke:#cb0;stroke-width:1;"/>
   <line x1="162.5" y1="346" x2="158.96446609407" y2="349.53553390593" style="stroke:#cb0;stroke-width:2;"/>
   <line x1="162.5" y1="346" x2="158.96446609407" y2="342.46446609407" style="stroke:#cb0;stroke-width:2;"/>
   <line x1="293" y1="292" x2="289.46446609407" y2="295.53553390593" style="stroke:#cb0;stroke-width:2;"/>
   <line x1="293" y1="292" x2="289.46446609407" y2="288.46446609407" style="stroke:#cb0;stroke-width:2;"/>
   <line x1="44" y1="326" x2="34" y2="326" style="stroke:#333;stroke-width:1;"/>
   <line x1="27" y1="48" x2="37" y2="48" style="stroke:#333;stroke-width:1;"/>
   <line x1="34" y1="326" x2="27" y2="48" style="stroke:#333;stroke-width:1;"/>
   <line x1="36.5" y1="326" x2="40.035533905933" y2="329.53553390593" style="stroke:#333;stroke-width:2;"/>
   <line x1="36.5" y1="326" x2="40.035533905933" y2="322.46446609407" style="stroke:#333;stroke-width:2;"/>
   <line x1="32" y1="48" x2="28.464466094067" y2="51.535533905933" style="stroke:#333;stroke-width:2;"/>
   <line x1="32" y1="48" x2="28.464466094067" y2="44.464466094067" style="stroke:#333;stroke-width:2;"/>
   <line x1="911" y1="98" x2="901" y2="98" style="stroke:#0b0;stroke-width:1;"/>
   <line x1="401" y1="292" x2="391" y2="292" style="stroke:#0b0;stroke-width:1;"/>
   <line x1="901" y1="98" x2="401" y2="292" style="stroke:#0b0;stroke-width:1;"/>
   <line x1="903.5" y1="98" x2="907.03553390593" y2="101.53553390593" style="stroke:#0b0;stroke-width:2;"/>
   <line x1="903.5" y1="98" x2="907.03553390593" y2="94.464466094067" style="stroke:#0b0;stroke-width:2;"/>
   <line x1="396" y1="292" x2="399.53553390593" y2="295.53553390593" style="stroke:#0b0;stroke-width:2;"/>
   <line x1="396" y1="292" x2="399.53553390593" y2="288.46446609407" style="stroke:#0b0;stroke-width:2;"/>
   <line x1="911" y1="138" x2="901" y2="138" style="stroke:#333;stroke-width:1;"/>
   <line x1="445" y1="95" x2="435" y2="95" style="stroke:#333;stroke-width:1;"/>
   <line x1="901" y1="138" x2="445" y2="95" style="stroke:#333;stroke-width:1;"/>
   <line x1="903.5" y1="138" x2="907.03553390593" y2="141.53553390593" style="stroke:#333;stroke-width:2;"/>
   <line x1="903.5" y1="138" x2="907.03553390593" y2="134.46446609407" style="stroke:#333;stroke-width:2;"/>
   <line x1="440" y1="95" x2="443.53553390593" y2="98.535533905933" style="stroke:#333;stroke-width:2;"/>
   <line x1="440" y1="95" x2="443.53553390593" y2="91.464466094067" style="stroke:#333;stroke-width:2;"/>
   <line x1="911" y1="118" x2="901" y2="118" style="stroke:#b0b;stroke-width:1;"/>
   <line x1="699" y1="51" x2="689" y2="51" style="stroke:#b0b;stroke-width:1;"/>
   <line x1="901" y1="118" x2="699" y2="51" style="stroke:#b0b;stroke-width:1;"/>
   <line x1="903.5" y1="118" x2="907.03553390593" y2="121.53553390593" style="stroke:#b0b;stroke-width:2;"/>
   <line x1="903.5" y1="118" x2="907.03553390593" y2="114.46446609407" style="stroke:#b0b;stroke-width:2;"/>
   <line x1="694" y1="51" x2="697.53553390593" y2="54.535533905933" style="stroke:#b0b;stroke-width:2;"/>
   <line x1="694" y1="51" x2="697.53553390593" y2="47.464466094067" style="stroke:#b0b;stroke-width:2;"/>
   <line x1="997" y1="460" x2="1007" y2="460" style="stroke:#cb0;stroke-width:1;"/>
   <line x1="1143" y1="58" x2="1153" y2="58" style="stroke:#cb0;stroke-width:1;"/>
   <line x1="1007" y1="460" x2="1143" y2="58" style="stroke:#cb0;stroke-width:1;"/>
   <line x1="1004.5" y1="460" x2="1000.9644660941" y2="463.53553390593" style="stroke:#cb0;stroke-width:2;"/>
   <line x1="1004.5" y1="460" x2="1000.9644660941" y2="456.46446609407" style="stroke:#cb0;stroke-width:2;"/>
   <line x1="1148" y1="58" x2="1144.4644660941" y2="61.535533905933" style="stroke:#cb0;stroke-width:2;"/>
   <line x1="1148" y1="58" x2="1144.4644660941" y2="54.464466094067" style="stroke:#cb0;stroke-width:2;"/>
   <line x1="913" y1="440" x2="903" y2="440" style="stroke:#0b0;stroke-width:1;"/>
   <line x1="901" y1="38" x2="911" y2="38" style="stroke:#0b0;stroke-width:1;"/>
   <line x1="903" y1="440" x2="901" y2="38" style="stroke:#0b0;stroke-width:1;"/>
   <line x1="905.5" y1="440" x2="909.03553390593" y2="443.53553390593" style="stroke:#0b0;stroke-width:2;"/>
   <line x1="905.5" y1="440" x2="909.03553390593" y2="436.46446609407" style="stroke:#0b0;stroke-width:2;"/>
   <line x1="906" y1="38" x2="902.46446609407" y2="41.535533905933" style="stroke:#0b0;stroke-width:2;"/>
   <line x1="906" y1="38" x2="902.46446609407" y2="34.464466094067" style="stroke:#0b0;stroke-width:2;"/>
   <line x1="913" y1="440" x2="903" y2="440" style="stroke:#bbb;stroke-width:1;"/>
   <line x1="901" y1="38" x2="911" y2="38" style="stroke:#bbb;stroke-width:1;"/>
   <line x1="903" y1="440" x2="901" y2="38" style="stroke:#bbb;stroke-width:1;"/>
   <line x1="905.5" y1="440" x2="909.03553390593" y2="443.53553390593" style="stroke:#bbb;stroke-width:2;"/>
   <line x1="905.5" y1="440" x2="909.03553390593" y2="436.46446609407" style="stroke:#bbb;stroke-width:2;"/>
   <line x1="906" y1="38" x2="902.46446609407" y2="41.535533905933" style="stroke:#bbb;stroke-width:2;"/>
   <line x1="906" y1="38" x2="902.46446609407" y2="34.464466094067" style="stroke:#bbb;stroke-width:2;"/>
   <line x1="913" y1="440" x2="903" y2="440" style="stroke:#b0b;stroke-width:1;"/>
   <line x1="901" y1="38" x2="911" y2="38" style="stroke:#b0b;stroke-width:1;"/>
   <line x1="903" y1="440" x2="901" y2="38" style="stroke:#b0b;stroke-width:1;"/>
   <line x1="905.5" y1="440" x2="909.03553390593" y2="443.53553390593" style="stroke:#b0b;stroke-width:2;"/>
   <line x1="905.5" y1="440" x2="909.03553390593" y2="436.46446609407" style="stroke:#b0b;stroke-width:2;"/>
   <line x1="906" y1="38" x2="902.46446609407" y2="41.535533905933" style="stroke:#b0b;stroke-width:2;"/>
   <line x1="906" y1="38" x2="902.46446609407" y2="34.464466094067" style="stroke:#b0b;stroke-width:2;"/>
   <line x1="913" y1="440" x2="903" y2="440" style="stroke:#333;stroke-width:1;"/>
   <line x1="901" y1="38" x2="911" y2="38" style="stroke:#333;stroke-width:1;"/>
   <line x1="903" y1="440" x2="901" y2="38" style="stroke:#333;stroke-width:1;"/>
   <line x1="905.5" y1="440" x2="909.03553390593" y2="443.53553390593" style="stroke:#333;stroke-width:2;"/>
   <line x1="905.5" y1="440" x2="909.03553390593" y2="436.46446609407" style="stroke:#333;stroke-width:2;"/>
   <line x1="906" y1="38" x2="902.46446609407" y2="41.535533905933" style="stroke:#333;stroke-width:2;"/>
   <line x1="906" y1="38" x2="902.46446609407" y2="34.464466094067" style="stroke:#333;stroke-width:2;"/>
   <line x1="760" y1="403" x2="770" y2="403" style="stroke:#c00;stroke-width:1;"/>
   <line x1="901" y1="38" x2="911" y2="38" style="stroke:#c00;stroke-width:1;"/>
   <line x1="770" y1="403" x2="901" y2="38" style="stroke:#c00;stroke-width:1;"/>
   <line x1="767.5" y1="403" x2="763.96446609407" y2="406.53553390593" style="stroke:#c00;stroke-width:2;"/>
   <line x1="767.5" y1="403" x2="763.96446609407" y2="399.46446609407" style="stroke:#c00;stroke-width:2;"/>
   <line x1="906" y1="38" x2="902.46446609407" y2="41.535533905933" style="stroke:#c00;stroke-width:2;"/>
   <line x1="906" y1="38" x2="902.46446609407" y2="34.464466094067" style="stroke:#c00;stroke-width:2;"/>
   <line x1="910" y1="326" x2="900" y2="326" style="stroke:#c00;stroke-width:1;"/>
   <line x1="901" y1="38" x2="911" y2="38" style="stroke:#c00;stroke-width:1;"/>
   <line x1="900" y1="326" x2="901" y2="38" style="stroke:#c00;stroke-width:1;"/>
   <line x1="902.5" y1="326" x2="906.03553390593" y2="329.53553390593" style="stroke:#c00;stroke-width:2;"/>
   <line x1="902.5" y1="326" x2="906.03553390593" y2="322.46446609407" style="stroke:#c00;stroke-width:2;"/>
   <line x1="906" y1="38" x2="902.46446609407" y2="41.535533905933" style="stroke:#c00;stroke-width:2;"/>
   <line x1="906" y1="38" x2="902.46446609407" y2="34.464466094067" style="stroke:#c00;stroke-width:2;"/>
   <line x1="910" y1="346" x2="900" y2="346" style="stroke:#b0b;stroke-width:1;"/>
   <line x1="736" y1="271" x2="726" y2="271" style="stroke:#b0b;stroke-width:1;"/>
   <line x1="900" y1="346" x2="736" y2="271" style="stroke:#b0b;stroke-width:1;"/>
   <line x1="902.5" y1="346" x2="906.03553390593" y2="349.53553390593" style="stroke:#b0b;stroke-width:2;"/>
   <line x1="902.5" y1="346" x2="906.03553390593" y2="342.46446609407" style="stroke:#b0b;stroke-width:2;"/>
   <line x1="731" y1="271" x2="734.53553390593" y2="274.53553390593" style="stroke:#b0b;stroke-width:2;"/>
   <line x1="731" y1="271" x2="734.53553390593" y2="267.46446609407" style="stroke:#b0b;stroke-width:2;"/>
   <line x1="1153" y1="218" x2="1143" y2="218" style="stroke:#b0b;stroke-width:1;"/>
   <line x1="445" y1="95" x2="435" y2="95" style="stroke:#b0b;stroke-width:1;"/>
   <line x1="1143" y1="218" x2="445" y2="95" style="stroke:#b0b;stroke-width:1;"/>
   <line x1="1145.5" y1="218" x2="1149.0355339059" y2="221.53553390593" style="stroke:#b0b;stroke-width:2;"/>
   <line x1="1145.5" y1="218" x2="1149.0355339059" y2="214.46446609407" style="stroke:#b0b;stroke-width:2;"/>
   <line x1="440" y1="95" x2="443.53553390593" y2="98.535533905933" style="stroke:#b0b;stroke-width:2;"/>
   <line x1="440" y1="95" x2="443.53553390593" y2="91.464466094067" style="stroke:#b0b;stroke-width:2;"/>
   <line x1="1153" y1="238" x2="1143" y2="238" style="stroke:#bbb;stroke-width:1;"/>
   <line x1="736" y1="271" x2="726" y2="271" style="stroke:#bbb;stroke-width:1;"/>
   <line x1="1143" y1="238" x2="736" y2="271" style="stroke:#bbb;stroke-width:1;"/>
   <line x1="1145.5" y1="238" x2="1149.0355339059" y2="241.53553390593" style="stroke:#bbb;stroke-width:2;"/>
   <line x1="1145.5" y1="238" x2="1149.0355339059" y2="234.46446609407" style="stroke:#bbb;stroke-width:2;"/>
   <line x1="731" y1="271" x2="734.53553390593" y2="274.53553390593" style="stroke:#bbb;stroke-width:2;"/>
   <line x1="731" y1="271" x2="734.53553390593" y2="267.46446609407" style="stroke:#bbb;stroke-width:2;"/>
   <line x1="1131" y1="486" x2="1121" y2="486" style="stroke:#333;stroke-width:1;"/>
   <line x1="1017" y1="38" x2="1007" y2="38" style="stroke:#333;stroke-width:1;"/>
   <line x1="1121" y1="486" x2="1017" y2="38" style="stroke:#333;stroke-width:1;"/>
   <line x1="1123.5" y1="486" x2="1127.0355339059" y2="489.53553390593" style="stroke:#333;stroke-width:2;"/>
   <line x1="1123.5" y1="486" x2="1127.0355339059" y2="482.46446609407" style="stroke:#333;stroke-width:2;"/>
   <line x1="1012" y1="38" x2="1015.5355339059" y2="41.535533905933" style="stroke:#333;stroke-width:2;"/>
   <line x1="1012" y1="38" x2="1015.5355339059" y2="34.464466094067" style="stroke:#333;stroke-width:2;"/>
   <line x1="1131" y1="506" x2="1121" y2="506" style="stroke:#0b0;stroke-width:1;"/>
   <line x1="1143" y1="58" x2="1153" y2="58" style="stroke:#0b0;stroke-width:1;"/>
   <line x1="1121" y1="506" x2="1143" y2="58" style="stroke:#0b0;stroke-width:1;"/>
   <line x1="1123.5" y1="506" x2="1127.0355339059" y2="509.53553390593" style="stroke:#0b0;stroke-width:2;"/>
   <line x1="1123.5" y1="506" x2="1127.0355339059" y2="502.46446609407" style="stroke:#0b0;stroke-width:2;"/>
   <line x1="1148" y1="58" x2="1144.4644660941" y2="61.535533905933" style="stroke:#0b0;stroke-width:2;"/>
   <line x1="1148" y1="58" x2="1144.4644660941" y2="54.464466094067" style="stroke:#0b0;stroke-width:2;"/>
   <line x1="1131" y1="466" x2="1121" y2="466" style="stroke:#c00;stroke-width:1;"/>
   <line x1="401" y1="292" x2="391" y2="292" style="stroke:#c00;stroke-width:1;"/>
   <line x1="1121" y1="466" x2="401" y2="292" style="stroke:#c00;stroke-width:1;"/>
   <line x1="1123.5" y1="466" x2="1127.0355339059" y2="469.53553390593" style="stroke:#c00;stroke-width:2;"/>
   <line x1="1123.5" y1="466" x2="1127.0355339059" y2="462.46446609407" style="stroke:#c00;stroke-width:2;"/>
   <line x1="396" y1="292" x2="399.53553390593" y2="295.53553390593" style="stroke:#c00;stroke-width:2;"/>
   <line x1="396" y1="292" x2="399.53553390593" y2="288.46446609407" style="stroke:#c00;stroke-width:2;"/>
   <line x1="327" y1="155" x2="317" y2="155" style="stroke:#cb0;stroke-width:1;"/>
   <line x1="288" y1="292" x2="298" y2="292" style="stroke:#cb0;stroke-width:1;"/>
   <line x1="317" y1="155" x2="288" y2="292" style="stroke:#cb0;stroke-width:1;"/>
   <line x1="319.5" y1="155" x2="323.03553390593" y2="158.53553390593" style="stroke:#cb0;stroke-width:2;"/>
   <line x1="319.5" y1="155" x2="323.03553390593" y2="151.46446609407" style="stroke:#cb0;stroke-width:2;"/>
   <line x1="293" y1="292" x2="289.46446609407" y2="295.53553390593" style="stroke:#cb0;stroke-width:2;"/>
   <line x1="293" y1="292" x2="289.46446609407" y2="288.46446609407" style="stroke:#cb0;stroke-width:2;"/>
   <line x1="435" y1="135" x2="445" y2="135" style="stroke:#c00;stroke-width:1;"/>
   <line x1="572" y1="51" x2="582" y2="51" style="stroke:#c00;stroke-width:1;"/>
   <line x1="445" y1="135" x2="572" y2="51" style="stroke:#c00;stroke-width:1;"/>
   <line x1="442.5" y1="135" x2="438.96446609407" y2="138.53553390593" style="stroke:#c00;stroke-width:2;"/>
   <line x1="442.5" y1="135" x2="438.96446609407" y2="131.46446609407" style="stroke:#c00;stroke-width:2;"/>
   <line x1="577" y1="51" x2="573.46446609407" y2="54.535533905933" style="stroke:#c00;stroke-width:2;"/>
   <line x1="577" y1="51" x2="573.46446609407" y2="47.464466094067" style="stroke:#c00;stroke-width:2;"/>
   <line x1="687" y1="619" x2="677" y2="619" style="stroke:#cb0;stroke-width:1;"/>
   <line x1="445" y1="95" x2="435" y2="95" style="stroke:#cb0;stroke-width:1;"/>
   <line x1="677" y1="619" x2="445" y2="95" style="stroke:#cb0;stroke-width:1;"/>
   <line x1="679.5" y1="619" x2="683.03553390593" y2="622.53553390593" style="stroke:#cb0;stroke-width:2;"/>
   <line x1="679.5" y1="619" x2="683.03553390593" y2="615.46446609407" style="stroke:#cb0;stroke-width:2;"/>
   <line x1="440" y1="95" x2="443.53553390593" y2="98.535533905933" style="stroke:#cb0;stroke-width:2;"/>
   <line x1="440" y1="95" x2="443.53553390593" y2="91.464466094067" style="stroke:#cb0;stroke-width:2;"/>
   <line x1="687" y1="639" x2="677" y2="639" style="stroke:#bbb;stroke-width:1;"/>
   <line x1="627" y1="271" x2="637" y2="271" style="stroke:#bbb;stroke-width:1;"/>
   <line x1="677" y1="639" x2="627" y2="271" style="stroke:#bbb;stroke-width:1;"/>
   <line x1="679.5" y1="639" x2="683.03553390593" y2="642.53553390593" style="stroke:#bbb;stroke-width:2;"/>
   <line x1="679.5" y1="639" x2="683.03553390593" y2="635.46446609407" style="stroke:#bbb;stroke-width:2;"/>
   <line x1="632" y1="271" x2="628.46446609407" y2="274.53553390593" style="stroke:#bbb;stroke-width:2;"/>
   <line x1="632" y1="271" x2="628.46446609407" y2="267.46446609407" style="stroke:#bbb;stroke-width:2;"/>
   <line x1="305" y1="607" x2="295" y2="607" style="stroke:#b0b;stroke-width:1;"/>
   <line x1="288" y1="292" x2="298" y2="292" style="stroke:#b0b;stroke-width:1;"/>
   <line x1="295" y1="607" x2="288" y2="292" style="stroke:#b0b;stroke-width:1;"/>
   <line x1="297.5" y1="607" x2="301.03553390593" y2="610.53553390593" style="stroke:#b0b;stroke-width:2;"/>
   <line x1="297.5" y1="607" x2="301.03553390593" y2="603.46446609407" style="stroke:#b0b;stroke-width:2;"/>
   <line x1="293" y1="292" x2="289.46446609407" y2="295.53553390593" style="stroke:#b0b;stroke-width:2;"/>
   <line x1="293" y1="292" x2="289.46446609407" y2="288.46446609407" style="stroke:#b0b;stroke-width:2;"/>
   <line x1="460" y1="627" x2="470" y2="627" style="stroke:#c00;stroke-width:1;"/>
   <line x1="901" y1="38" x2="911" y2="38" style="stroke:#c00;stroke-width:1;"/>
   <line x1="470" y1="627" x2="901" y2="38" style="stroke:#c00;stroke-width:1;"/>
   <line x1="467.5" y1="627" x2="463.96446609407" y2="630.53553390593" style="stroke:#c00;stroke-width:2;"/>
   <line x1="467.5" y1="627" x2="463.96446609407" y2="623.46446609407" style="stroke:#c00;stroke-width:2;"/>
   <line x1="906" y1="38" x2="902.46446609407" y2="41.535533905933" style="stroke:#c00;stroke-width:2;"/>
   <line x1="906" y1="38" x2="902.46446609407" y2="34.464466094067" style="stroke:#c00;stroke-width:2;"/>
   <line x1="637" y1="311" x2="627" y2="311" style="stroke:#c00;stroke-width:1;"/>
   <line x1="445" y1="95" x2="435" y2="95" style="stroke:#c00;stroke-width:1;"/>
   <line x1="627" y1="311" x2="445" y2="95" style="stroke:#c00;stroke-width:1;"/>
   <line x1="629.5" y1="311" x2="633.03553390593" y2="314.53553390593" style="stroke:#c00;stroke-width:2;"/>
   <line x1="629.5" y1="311" x2="633.03553390593" y2="307.46446609407" style="stroke:#c00;stroke-width:2;"/>
   <line x1="440" y1="95" x2="443.53553390593" y2="98.535533905933" style="stroke:#c00;stroke-width:2;"/>
   <line x1="440" y1="95" x2="443.53553390593" y2="91.464466094067" style="stroke:#c00;stroke-width:2;"/>
   <line x1="391" y1="372" x2="401" y2="372" style="stroke:#cb0;stroke-width:1;"/>
   <line x1="572" y1="51" x2="582" y2="51" style="stroke:#cb0;stroke-width:1;"/>
   <line x1="401" y1="372" x2="572" y2="51" style="stroke:#cb0;stroke-width:1;"/>
   <line x1="398.5" y1="372" x2="394.96446609407" y2="375.53553390593" style="stroke:#cb0;stroke-width:2;"/>
   <line x1="398.5" y1="372" x2="394.96446609407" y2="368.46446609407" style="stroke:#cb0;stroke-width:2;"/>
   <line x1="577" y1="51" x2="573.46446609407" y2="54.535533905933" style="stroke:#cb0;stroke-width:2;"/>
   <line x1="577" y1="51" x2="573.46446609407" y2="47.464466094067" style="stroke:#cb0;stroke-width:2;"/>
   <rect width="137" height="20" x="37" y="18" style="fill:#007;stroke:black;"/>
   <text width="137" height="20" x="42" y="32" style="fill:#fff;" font-family="Arial" font-size="16px"> assignment</text>
   <rect width="137" height="20" x="37" y="38" style="fill:#aea;stroke:black;"/>
   <text width="137" height="20" x="42" y="52" style="fill:black;" font-family="Arial" font-size="16px">Assignment_id</text>
   <rect width="137" height="20" x="37" y="58" style="fill:none;stroke:black;"/>
   <text width="137" height="20" x="42" y="72" style="fill:black;" font-family="Arial" font-size="16px">assignment_name</text>
   <rect width="137" height="20" x="37" y="78" style="fill:none;stroke:black;"/>
   <text width="137" height="20" x="42" y="92" style="fill:black;" font-family="Arial" font-size="16px">User_id</text>
   <rect width="137" height="20" x="37" y="98" style="fill:none;stroke:black;"/>
   <text width="137" height="20" x="42" y="112" style="fill:black;" font-family="Arial" font-size="16px">Course_id</text>
   <rect width="137" height="20" x="37" y="118" style="fill:none;stroke:black;"/>
   <text width="137" height="20" x="42" y="132" style="fill:black;" font-family="Arial" font-size="16px">Subject_id</text>
   <rect width="137" height="20" x="37" y="138" style="fill:none;stroke:black;"/>
   <text width="137" height="20" x="42" y="152" style="fill:black;" font-family="Arial" font-size="16px">topic_id</text>
   <rect width="137" height="20" x="37" y="158" style="fill:none;stroke:black;"/>
   <text width="137" height="20" x="42" y="172" style="fill:black;" font-family="Arial" font-size="16px">ass_upload</text>
   <rect width="137" height="20" x="37" y="178" style="fill:none;stroke:black;"/>
   <text width="137" height="20" x="42" y="192" style="fill:black;" font-family="Arial" font-size="16px">due_date</text>
   <rect width="137" height="20" x="37" y="198" style="fill:none;stroke:black;"/>
   <text width="137" height="20" x="42" y="212" style="fill:black;" font-family="Arial" font-size="16px">upload_time</text>
   <rect width="111" height="20" x="41" y="450" style="fill:#007;stroke:black;"/>
   <text width="111" height="20" x="46" y="464" style="fill:#fff;" font-family="Arial" font-size="16px"> ass_eval</text>
   <rect width="111" height="20" x="41" y="470" style="fill:#aea;stroke:black;"/>
   <text width="111" height="20" x="46" y="484" style="fill:black;" font-family="Arial" font-size="16px">eval_id</text>
   <rect width="111" height="20" x="41" y="490" style="fill:none;stroke:black;"/>
   <text width="111" height="20" x="46" y="504" style="fill:black;" font-family="Arial" font-size="16px">Assignment_id</text>
   <rect width="111" height="20" x="41" y="510" style="fill:none;stroke:black;"/>
   <text width="111" height="20" x="46" y="524" style="fill:black;" font-family="Arial" font-size="16px">Response_id</text>
   <rect width="111" height="20" x="41" y="530" style="fill:none;stroke:black;"/>
   <text width="111" height="20" x="46" y="544" style="fill:black;" font-family="Arial" font-size="16px">grade</text>
   <rect width="111" height="20" x="41" y="550" style="fill:none;stroke:black;"/>
   <text width="111" height="20" x="46" y="564" style="fill:black;" font-family="Arial" font-size="16px">feedback</text>
   <rect width="111" height="20" x="44" y="276" style="fill:#007;stroke:black;"/>
   <text width="111" height="20" x="49" y="290" style="fill:#fff;" font-family="Arial" font-size="16px"> ass_response</text>
   <rect width="111" height="20" x="44" y="296" style="fill:#aea;stroke:black;"/>
   <text width="111" height="20" x="49" y="310" style="fill:black;" font-family="Arial" font-size="16px">Response_id</text>
   <rect width="111" height="20" x="44" y="316" style="fill:none;stroke:black;"/>
   <text width="111" height="20" x="49" y="330" style="fill:black;" font-family="Arial" font-size="16px">Assignment_id</text>
   <rect width="111" height="20" x="44" y="336" style="fill:none;stroke:black;"/>
   <text width="111" height="20" x="49" y="350" style="fill:black;" font-family="Arial" font-size="16px">User_id</text>
   <rect width="111" height="20" x="44" y="356" style="fill:none;stroke:black;"/>
   <text width="111" height="20" x="49" y="370" style="fill:black;" font-family="Arial" font-size="16px">sol_upload</text>
   <rect width="111" height="20" x="44" y="376" style="fill:none;stroke:black;"/>
   <text width="111" height="20" x="49" y="390" style="fill:black;" font-family="Arial" font-size="16px">submit_time</text>
   <rect width="107" height="20" x="582" y="21" style="fill:#007;stroke:black;"/>
   <text width="107" height="20" x="587" y="35" style="fill:#fff;" font-family="Arial" font-size="16px"> cources</text>
   <rect width="107" height="20" x="582" y="41" style="fill:#aea;stroke:black;"/>
   <text width="107" height="20" x="587" y="55" style="fill:black;" font-family="Arial" font-size="16px">Course_id</text>
   <rect width="107" height="20" x="582" y="61" style="fill:none;stroke:black;"/>
   <text width="107" height="20" x="587" y="75" style="fill:black;" font-family="Arial" font-size="16px">Course_name</text>
   <rect width="96" height="20" x="911" y="8" style="fill:#007;stroke:black;"/>
   <text width="96" height="20" x="916" y="22" style="fill:#fff;" font-family="Arial" font-size="16px"> exam</text>
   <rect width="96" height="20" x="911" y="28" style="fill:#aea;stroke:black;"/>
   <text width="96" height="20" x="916" y="42" style="fill:black;" font-family="Arial" font-size="16px">Exam_id</text>
   <rect width="96" height="20" x="911" y="48" style="fill:none;stroke:black;"/>
   <text width="96" height="20" x="916" y="62" style="fill:black;" font-family="Arial" font-size="16px">Exam_name</text>
   <rect width="96" height="20" x="911" y="68" style="fill:none;stroke:black;"/>
   <text width="96" height="20" x="916" y="82" style="fill:black;" font-family="Arial" font-size="16px">Exam_type</text>
   <rect width="96" height="20" x="911" y="88" style="fill:none;stroke:black;"/>
   <text width="96" height="20" x="916" y="102" style="fill:black;" font-family="Arial" font-size="16px">User_id</text>
   <rect width="96" height="20" x="911" y="108" style="fill:none;stroke:black;"/>
   <text width="96" height="20" x="916" y="122" style="fill:black;" font-family="Arial" font-size="16px">Course_id</text>
   <rect width="96" height="20" x="911" y="128" style="fill:none;stroke:black;"/>
   <text width="96" height="20" x="916" y="142" style="fill:black;" font-family="Arial" font-size="16px">Subject_id</text>
   <rect width="96" height="20" x="911" y="148" style="fill:none;stroke:black;"/>
   <text width="96" height="20" x="916" y="162" style="fill:black;" font-family="Arial" font-size="16px">Create_time</text>
   <rect width="96" height="20" x="911" y="168" style="fill:none;stroke:black;"/>
   <text width="96" height="20" x="916" y="182" style="fill:black;" font-family="Arial" font-size="16px">total_marks</text>
   <rect width="96" height="20" x="911" y="188" style="fill:none;stroke:black;"/>
   <text width="96" height="20" x="916" y="202" style="fill:black;" font-family="Arial" font-size="16px">tInterval</text>
   <rect width="96" height="20" x="911" y="208" style="fill:none;stroke:black;"/>
   <text width="96" height="20" x="916" y="222" style="fill:black;" font-family="Arial" font-size="16px">Available</text>
   <rect width="84" height="20" x="913" y="390" style="fill:#007;stroke:black;"/>
   <text width="84" height="20" x="918" y="404" style="fill:#fff;" font-family="Arial" font-size="16px"> exam_mcq</text>
   <rect width="84" height="20" x="913" y="410" style="fill:#aea;stroke:black;"/>
   <text width="84" height="20" x="918" y="424" style="fill:black;" font-family="Arial" font-size="16px">exam_mcq</text>
   <rect width="84" height="20" x="913" y="430" style="fill:none;stroke:black;"/>
   <text width="84" height="20" x="918" y="444" style="fill:black;" font-family="Arial" font-size="16px">Exam_id</text>
   <rect width="84" height="20" x="913" y="450" style="fill:none;stroke:black;"/>
   <text width="84" height="20" x="918" y="464" style="fill:black;" font-family="Arial" font-size="16px">mcq_id</text>
   <rect width="136" height="20" x="624" y="353" style="fill:#007;stroke:black;"/>
   <text width="136" height="20" x="629" y="367" style="fill:#fff;" font-family="Arial" font-size="16px"> exam_test_content</text>
   <rect width="136" height="20" x="624" y="373" style="fill:#aea;stroke:black;"/>
   <text width="136" height="20" x="629" y="387" style="fill:black;" font-family="Arial" font-size="16px">exam_test_que_id</text>
   <rect width="136" height="20" x="624" y="393" style="fill:none;stroke:black;"/>
   <text width="136" height="20" x="629" y="407" style="fill:black;" font-family="Arial" font-size="16px">exam_id</text>
   <rect width="136" height="20" x="624" y="413" style="fill:none;stroke:black;"/>
   <text width="136" height="20" x="629" y="427" style="fill:black;" font-family="Arial" font-size="16px">test_question_id</text>
   <rect width="105" height="20" x="910" y="276" style="fill:#007;stroke:black;"/>
   <text width="105" height="20" x="915" y="290" style="fill:#fff;" font-family="Arial" font-size="16px"> exam_topic</text>
   <rect width="105" height="20" x="910" y="296" style="fill:#aea;stroke:black;"/>
   <text width="105" height="20" x="915" y="310" style="fill:black;" font-family="Arial" font-size="16px">exam_topic_id</text>
   <rect width="105" height="20" x="910" y="316" style="fill:none;stroke:black;"/>
   <text width="105" height="20" x="915" y="330" style="fill:black;" font-family="Arial" font-size="16px">Exam_id</text>
   <rect width="105" height="20" x="910" y="336" style="fill:none;stroke:black;"/>
   <text width="105" height="20" x="915" y="350" style="fill:black;" font-family="Arial" font-size="16px">Topic_id</text>
   <rect width="116" height="20" x="1153" y="28" style="fill:#007;stroke:black;"/>
   <text width="116" height="20" x="1158" y="42" style="fill:#fff;" font-family="Arial" font-size="16px"> mcq</text>
   <rect width="116" height="20" x="1153" y="48" style="fill:#aea;stroke:black;"/>
   <text width="116" height="20" x="1158" y="62" style="fill:black;" font-family="Arial" font-size="16px">mcq_id</text>
   <rect width="116" height="20" x="1153" y="68" style="fill:none;stroke:black;"/>
   <text width="116" height="20" x="1158" y="82" style="fill:black;" font-family="Arial" font-size="16px">question</text>
   <rect width="116" height="20" x="1153" y="88" style="fill:none;stroke:black;"/>
   <text width="116" height="20" x="1158" y="102" style="fill:black;" font-family="Arial" font-size="16px">option1</text>
   <rect width="116" height="20" x="1153" y="108" style="fill:none;stroke:black;"/>
   <text width="116" height="20" x="1158" y="122" style="fill:black;" font-family="Arial" font-size="16px">option2</text>
   <rect width="116" height="20" x="1153" y="128" style="fill:none;stroke:black;"/>
   <text width="116" height="20" x="1158" y="142" style="fill:black;" font-family="Arial" font-size="16px">option3</text>
   <rect width="116" height="20" x="1153" y="148" style="fill:none;stroke:black;"/>
   <text width="116" height="20" x="1158" y="162" style="fill:black;" font-family="Arial" font-size="16px">option4</text>
   <rect width="116" height="20" x="1153" y="168" style="fill:none;stroke:black;"/>
   <text width="116" height="20" x="1158" y="182" style="fill:black;" font-family="Arial" font-size="16px">m_weightage</text>
   <rect width="116" height="20" x="1153" y="188" style="fill:none;stroke:black;"/>
   <text width="116" height="20" x="1158" y="202" style="fill:black;" font-family="Arial" font-size="16px">correct_answer</text>
   <rect width="116" height="20" x="1153" y="208" style="fill:none;stroke:black;"/>
   <text width="116" height="20" x="1158" y="222" style="fill:black;" font-family="Arial" font-size="16px">Subject_id</text>
   <rect width="116" height="20" x="1153" y="228" style="fill:none;stroke:black;"/>
   <text width="116" height="20" x="1158" y="242" style="fill:black;" font-family="Arial" font-size="16px">topic_id</text>
   <rect width="116" height="20" x="1153" y="248" style="fill:none;stroke:black;"/>
   <text width="116" height="20" x="1158" y="262" style="fill:black;" font-family="Arial" font-size="16px">create_time</text>
   <rect width="116" height="20" x="1153" y="268" style="fill:none;stroke:black;"/>
   <text width="116" height="20" x="1158" y="282" style="fill:black;" font-family="Arial" font-size="16px">update_time</text>
   <rect width="98" height="20" x="1131" y="416" style="fill:#007;stroke:black;"/>
   <text width="98" height="20" x="1136" y="430" style="fill:#fff;" font-family="Arial" font-size="16px"> mcq_results</text>
   <rect width="98" height="20" x="1131" y="436" style="fill:#aea;stroke:black;"/>
   <text width="98" height="20" x="1136" y="450" style="fill:black;" font-family="Arial" font-size="16px">result_id</text>
   <rect width="98" height="20" x="1131" y="456" style="fill:none;stroke:black;"/>
   <text width="98" height="20" x="1136" y="470" style="fill:black;" font-family="Arial" font-size="16px">user_id</text>
   <rect width="98" height="20" x="1131" y="476" style="fill:none;stroke:black;"/>
   <text width="98" height="20" x="1136" y="490" style="fill:black;" font-family="Arial" font-size="16px">Exam_id</text>
   <rect width="98" height="20" x="1131" y="496" style="fill:none;stroke:black;"/>
   <text width="98" height="20" x="1136" y="510" style="fill:black;" font-family="Arial" font-size="16px">mcq_id</text>
   <rect width="98" height="20" x="1131" y="516" style="fill:none;stroke:black;"/>
   <text width="98" height="20" x="1136" y="530" style="fill:black;" font-family="Arial" font-size="16px">user_answer</text>
   <rect width="98" height="20" x="1131" y="536" style="fill:none;stroke:black;"/>
   <text width="98" height="20" x="1136" y="550" style="fill:black;" font-family="Arial" font-size="16px">m_obtain</text>
   <rect width="108" height="20" x="327" y="65" style="fill:#007;stroke:black;"/>
   <text width="108" height="20" x="332" y="79" style="fill:#fff;" font-family="Arial" font-size="16px"> subjects</text>
   <rect width="108" height="20" x="327" y="85" style="fill:#aea;stroke:black;"/>
   <text width="108" height="20" x="332" y="99" style="fill:black;" font-family="Arial" font-size="16px">Subject_id</text>
   <rect width="108" height="20" x="327" y="105" style="fill:none;stroke:black;"/>
   <text width="108" height="20" x="332" y="119" style="fill:black;" font-family="Arial" font-size="16px">Subject_name</text>
   <rect width="108" height="20" x="327" y="125" style="fill:none;stroke:black;"/>
   <text width="108" height="20" x="332" y="139" style="fill:black;" font-family="Arial" font-size="16px">Course_id</text>
   <rect width="108" height="20" x="327" y="145" style="fill:none;stroke:black;"/>
   <text width="108" height="20" x="332" y="159" style="fill:black;" font-family="Arial" font-size="16px">User_id</text>
   <rect width="146" height="20" x="687" y="489" style="fill:#007;stroke:black;"/>
   <text width="146" height="20" x="692" y="503" style="fill:#fff;" font-family="Arial" font-size="16px"> test_content</text>
   <rect width="146" height="20" x="687" y="509" style="fill:#aea;stroke:black;"/>
   <text width="146" height="20" x="692" y="523" style="fill:black;" font-family="Arial" font-size="16px">test_que_id</text>
   <rect width="146" height="20" x="687" y="529" style="fill:none;stroke:black;"/>
   <text width="146" height="20" x="692" y="543" style="fill:black;" font-family="Arial" font-size="16px">tesy_question_type</text>
   <rect width="146" height="20" x="687" y="549" style="fill:none;stroke:black;"/>
   <text width="146" height="20" x="692" y="563" style="fill:black;" font-family="Arial" font-size="16px">test_question</text>
   <rect width="146" height="20" x="687" y="569" style="fill:none;stroke:black;"/>
   <text width="146" height="20" x="692" y="583" style="fill:black;" font-family="Arial" font-size="16px">test_correct_answer</text>
   <rect width="146" height="20" x="687" y="589" style="fill:none;stroke:black;"/>
   <text width="146" height="20" x="692" y="603" style="fill:black;" font-family="Arial" font-size="16px">test_que_weightage</text>
   <rect width="146" height="20" x="687" y="609" style="fill:none;stroke:black;"/>
   <text width="146" height="20" x="692" y="623" style="fill:black;" font-family="Arial" font-size="16px">test_sub_id</text>
   <rect width="146" height="20" x="687" y="629" style="fill:none;stroke:black;"/>
   <text width="146" height="20" x="692" y="643" style="fill:black;" font-family="Arial" font-size="16px">test_topic_id</text>
   <rect width="146" height="20" x="687" y="649" style="fill:none;stroke:black;"/>
   <text width="146" height="20" x="692" y="663" style="fill:black;" font-family="Arial" font-size="16px">create_time</text>
   <rect width="146" height="20" x="687" y="669" style="fill:none;stroke:black;"/>
   <text width="146" height="20" x="692" y="683" style="fill:black;" font-family="Arial" font-size="16px">update_time</text>
   <rect width="155" height="20" x="305" y="557" style="fill:#007;stroke:black;"/>
   <text width="155" height="20" x="310" y="571" style="fill:#fff;" font-family="Arial" font-size="16px"> test_content_result</text>
   <rect width="155" height="20" x="305" y="577" style="fill:#aea;stroke:black;"/>
   <text width="155" height="20" x="310" y="591" style="fill:black;" font-family="Arial" font-size="16px">result_test_content_id</text>
   <rect width="155" height="20" x="305" y="597" style="fill:none;stroke:black;"/>
   <text width="155" height="20" x="310" y="611" style="fill:black;" font-family="Arial" font-size="16px">user_id</text>
   <rect width="155" height="20" x="305" y="617" style="fill:none;stroke:black;"/>
   <text width="155" height="20" x="310" y="631" style="fill:black;" font-family="Arial" font-size="16px">exam_id</text>
   <rect width="155" height="20" x="305" y="637" style="fill:none;stroke:black;"/>
   <text width="155" height="20" x="310" y="651" style="fill:black;" font-family="Arial" font-size="16px">test_que_id</text>
   <rect width="155" height="20" x="305" y="657" style="fill:none;stroke:black;"/>
   <text width="155" height="20" x="310" y="671" style="fill:black;" font-family="Arial" font-size="16px">test_user_answer</text>
   <rect width="155" height="20" x="305" y="677" style="fill:none;stroke:black;"/>
   <text width="155" height="20" x="310" y="691" style="fill:black;" font-family="Arial" font-size="16px">test_m_obtained</text>
   <rect width="155" height="20" x="305" y="697" style="fill:none;stroke:black;"/>
   <text width="155" height="20" x="310" y="711" style="fill:black;" font-family="Arial" font-size="16px">submit</text>
   <rect width="89" height="20" x="637" y="241" style="fill:#007;stroke:black;"/>
   <text width="89" height="20" x="642" y="255" style="fill:#fff;" font-family="Arial" font-size="16px"> topics</text>
   <rect width="89" height="20" x="637" y="261" style="fill:#aea;stroke:black;"/>
   <text width="89" height="20" x="642" y="275" style="fill:black;" font-family="Arial" font-size="16px">topic_id</text>
   <rect width="89" height="20" x="637" y="281" style="fill:none;stroke:black;"/>
   <text width="89" height="20" x="642" y="295" style="fill:black;" font-family="Arial" font-size="16px">topic_name</text>
   <rect width="89" height="20" x="637" y="301" style="fill:none;stroke:black;"/>
   <text width="89" height="20" x="642" y="315" style="fill:black;" font-family="Arial" font-size="16px">subject_id</text>
   <rect width="93" height="20" x="298" y="262" style="fill:#007;stroke:black;"/>
   <text width="93" height="20" x="303" y="276" style="fill:#fff;" font-family="Arial" font-size="16px"> users</text>
   <rect width="93" height="20" x="298" y="282" style="fill:#aea;stroke:black;"/>
   <text width="93" height="20" x="303" y="296" style="fill:black;" font-family="Arial" font-size="16px">User_id</text>
   <rect width="93" height="20" x="298" y="302" style="fill:none;stroke:black;"/>
   <text width="93" height="20" x="303" y="316" style="fill:black;" font-family="Arial" font-size="16px">first_name</text>
   <rect width="93" height="20" x="298" y="322" style="fill:none;stroke:black;"/>
   <text width="93" height="20" x="303" y="336" style="fill:black;" font-family="Arial" font-size="16px">last_name</text>
   <rect width="93" height="20" x="298" y="342" style="fill:none;stroke:black;"/>
   <text width="93" height="20" x="303" y="356" style="fill:black;" font-family="Arial" font-size="16px">credential</text>
   <rect width="93" height="20" x="298" y="362" style="fill:none;stroke:black;"/>
   <text width="93" height="20" x="303" y="376" style="fill:black;" font-family="Arial" font-size="16px">Course_id</text>
   <rect width="93" height="20" x="298" y="382" style="fill:none;stroke:black;"/>
   <text width="93" height="20" x="303" y="396" style="fill:black;" font-family="Arial" font-size="16px">Email</text>
   <rect width="93" height="20" x="298" y="402" style="fill:none;stroke:black;"/>
   <text width="93" height="20" x="303" y="416" style="fill:black;" font-family="Arial" font-size="16px">User_name</text>
   <rect width="93" height="20" x="298" y="422" style="fill:none;stroke:black;"/>
   <text width="93" height="20" x="303" y="436" style="fill:black;" font-family="Arial" font-size="16px">_Password</text>
   <rect width="93" height="20" x="298" y="442" style="fill:none;stroke:black;"/>
   <text width="93" height="20" x="303" y="456" style="fill:black;" font-family="Arial" font-size="16px">is_approved</text>
</svg>
